# xmcd
#
# Track frame offsets:
# 150
# 8512
# 24607
# 42434
# 58201
# 78432
# 104369
# 125512
# 142643
# 162198
# 186580
# 205316
# 214389
# 233027
# 252967
# 266624
# 287654
# 308789
#
# Disc length: 4368 seconds
#
#
# Revision: 0
# Processed by: cddbd v1.5.2PL0 Copyright (c) Steve Scherf et al.
# Submitted via: FreeRIP 2.60 
#
DISCID=02110e12
DTITLE=Alicia Keys - Songs In A Minor
DYEAR=1900
DGENRE=
TTITLE0=Alicia Keys - Piano and I
TTITLE1=Alicia Keys - Girlfriend
TTITLE2=Alicia Keys - How Come You Don't Call Me
TTITLE3=Alicia Keys - Fallin'
TTITLE4=Alicia Keys - Troubles
TTITLE5=Alicia Keys - Rock Wit U
TTITLE6=Alicia Keys - A Woman's Worth
TTITLE7=Alicia Keys - Jane Doe
TTITLE8=Alicia Keys - Goodbye
TTITLE9=Alicia Keys - The Life
TTITLE10=Alicia Keys Ft. Jimmy Corner - Mr. Man
TTITLE11=Alicia Keys - Never Felt This Way
TTITLE12=Alicia Keys - Butterflyz
TTITLE13=Alicia Keys - Why Do I Feel So Sad
TTITLE14=Alicia Keys - Caged Bird
TTITLE15=Alicia Keys - Fallin' (Flip Mode)
TTITLE16=Alicia Keys Ft. Black - Work
TTITLE17=Alicia Keys - Sexy Thing
EXTD=
EXTT0=
EXTT1=
EXTT2=
EXTT3=
EXTT4=
EXTT5=
EXTT6=
EXTT7=
EXTT8=
EXTT9=
EXTT10=
EXTT11=
EXTT12=
EXTT13=
EXTT14=
EXTT15=
EXTT16=
EXTT17=
PLAYORDER=
